<svg width="42" height="42" viewBox="0 0 42 42" fill="none" xmlns="http://www.w3.org/2000/svg">
<g clip-path="url(#clip0_478_14913)">
<path d="M31.098 27.3974L29.514 33.8746C29.1769 35.2536 27.7504 35.5333 26.7086 35.7384C25.3501 36.005 25.3165 36.1452 25.3682 36.466L26.022 40.5593C26.0523 40.7488 25.9982 40.9424 25.8735 41.0893C25.7488 41.2353 25.5667 41.3189 25.3739 41.3189H16.6261C16.4333 41.3189 16.2512 41.2353 16.1265 41.0893C16.0018 40.9424 15.9477 40.7488 15.978 40.5593L16.6318 36.466C16.6835 36.1452 16.6499 36.005 15.2914 35.7384C14.2496 35.5333 12.8231 35.2536 12.486 33.8746L10.902 27.3974C10.4762 25.7978 11.1636 24.8823 11.883 24.5846C12.7107 24.2417 13.6697 24.6116 14.1619 25.4648C14.1939 25.5197 14.2177 25.5796 14.2324 25.6411L15.4252 30.668C15.5187 31.0618 16.0683 31.2414 16.5391 31.2414H25.4609C25.9317 31.2414 26.4813 31.0618 26.5748 30.668L27.7676 25.6411C27.7823 25.5796 27.8061 25.5197 27.8381 25.4648C28.3303 24.6116 29.2893 24.2409 30.117 24.5846C30.8364 24.8823 31.5238 25.7978 31.098 27.3974ZM10.3999 13.672C9.89707 13.5374 9.23918 13.8434 8.54766 14.5349C8.29172 14.7917 7.87582 14.7917 7.61988 14.5349C7.03336 13.9492 6.47145 13.6449 6.00879 13.6449C5.75941 13.6449 5.53957 13.7335 5.35992 13.9131C4.91121 14.3618 4.80129 15.256 5.32547 15.781L8.08418 18.5389L10.8421 15.781C11.2129 15.4102 11.2383 14.8786 11.1382 14.5054C11.0225 14.0764 10.7469 13.7646 10.3999 13.672ZM8.08418 23.6535C3.98836 23.6535 0.65625 20.3214 0.65625 16.2256C0.65625 12.1298 3.98836 8.79848 8.08418 8.79848C12.18 8.79848 15.5113 12.1306 15.5113 16.2256C15.5113 20.3206 12.1792 23.6535 8.08418 23.6535ZM12.4056 14.1658C12.1677 13.279 11.5451 12.6203 10.7395 12.4046C10.1317 12.2413 9.20391 12.2676 8.08336 13.1863C6.52559 11.9198 5.16551 12.2512 4.43215 12.9854C3.54293 13.8737 3.31078 15.6218 4.3977 16.7087L7.61988 19.9309C7.74785 20.0589 7.91602 20.1229 8.08418 20.1229C8.25234 20.1229 8.41969 20.0589 8.54766 19.9309L11.7698 16.7087C12.4105 16.0681 12.6541 15.0936 12.4056 14.1658ZM41.3438 16.2256C41.3438 20.3214 38.0116 23.6535 33.9158 23.6535C29.82 23.6535 26.4887 20.3214 26.4887 16.2256C26.4887 12.1298 29.8208 8.79848 33.9158 8.79848C38.0108 8.79848 41.3438 12.1306 41.3438 16.2256ZM38.2725 14.5144C38.2725 13.8811 37.7565 13.366 37.1232 13.366H35.9658C35.3325 13.366 34.8173 13.8811 34.8173 14.5144V15.5693H33.0151V14.5144C33.0151 13.8811 32.4991 13.366 31.8659 13.366H30.7084C30.0751 13.366 29.56 13.8811 29.56 14.5144V17.9376C29.56 18.5709 30.0751 19.086 30.7084 19.086H31.8659C32.4991 19.086 33.0151 18.5709 33.0151 17.9376V16.8818H34.8173V17.9376C34.8173 18.5709 35.3325 19.086 35.9658 19.086H37.1232C37.7565 19.086 38.2725 18.5709 38.2725 17.9376V14.5144ZM13.5721 8.10777C13.5721 4.01277 16.9042 0.680664 21 0.680664C25.0958 0.680664 28.4279 4.01277 28.4279 8.10777C28.4279 12.2028 25.0958 15.5357 21 15.5357C16.9042 15.5357 13.5721 12.2036 13.5721 8.10777ZM16.8623 8.81488C16.8623 10.9346 18.1027 12.5949 19.6867 12.5949C20.0944 12.5949 20.4036 12.4727 20.6522 12.375C20.9557 12.2553 21.0476 12.2192 21.2863 12.3422C21.6136 12.5096 21.9589 12.5949 22.3133 12.5949C23.8973 12.5949 25.1377 10.9346 25.1377 8.81488C25.1377 6.6952 23.8973 5.03488 22.3133 5.03488C22.0434 5.03488 21.7793 5.08492 21.5242 5.18172C21.3979 4.41965 21.1821 3.5009 20.4225 3.14242C20.0944 2.9882 19.7031 3.12848 19.5489 3.4566C19.3938 3.78473 19.5349 4.1752 19.8622 4.33023C19.9976 4.3934 20.1001 4.74613 20.1715 5.09066C20.0123 5.05457 19.8507 5.03488 19.6867 5.03488C18.1027 5.03488 16.8623 6.6952 16.8623 8.81488ZM19.6867 11.2824C19.845 11.2824 19.9894 11.225 20.1715 11.1536C20.3921 11.0666 20.6793 10.9543 21.032 10.9543C21.283 10.9543 21.5677 11.0109 21.8859 11.1741C22.0254 11.2455 22.1689 11.2824 22.3133 11.2824C23.1328 11.2824 23.8252 10.152 23.8252 8.81488C23.8252 7.47777 23.1328 6.34738 22.3133 6.34738C22.1689 6.34738 22.0254 6.3843 21.8859 6.45566C21.3314 6.74031 20.6686 6.74031 20.1141 6.45566C19.9746 6.3843 19.8311 6.34738 19.6867 6.34738C18.8672 6.34738 18.1748 7.47777 18.1748 8.81488C18.1748 10.152 18.8672 11.2824 19.6867 11.2824ZM30.8725 17.7735H31.7026V14.6785H30.8725V17.7735ZM36.1298 17.7735H36.96V14.6785H36.1298V17.7735ZM17.4726 27.0187C17.4726 28.9636 19.055 30.546 20.9999 30.546C22.9449 30.546 24.5273 28.9636 24.5273 27.0187C24.5273 25.0737 22.9449 23.4913 20.9999 23.4913C19.055 23.4913 17.4726 25.0736 17.4726 27.0187Z" fill="#C39936"/>
</g>
<defs>
<clipPath id="clip0_478_14913">
<rect width="42" height="42" fill="white"/>
</clipPath>
</defs>
</svg>
