<svg width="20" height="20" viewBox="0 0 20 20" fill="none" xmlns="http://www.w3.org/2000/svg">
<g clip-path="url(#clip0_574_17356)">
<path d="M18.8 1.16067C17.18 -0.459332 14.36 -0.359331 12.64 1.38067L9.08 4.94067C8.64 5.38067 8.64 6.02067 9.08 6.46067C9.52 6.90067 10.16 6.90067 10.6 6.46067L14.16 2.88067C15.14 1.90067 16.54 1.90067 17.3 2.66067C18.06 3.42067 18.06 4.94067 17.08 5.80067L13.52 9.38067C13.08 9.82067 13.08 10.4607 13.52 10.9007C13.74 11.1207 14.06 11.2207 14.28 11.2207C14.6 11.2207 14.82 11.1207 15.04 10.9007L18.6 7.32067C20.44 5.60067 20.44 2.78067 18.8 1.16067Z" fill="#767676"/>
<path d="M9.52 13.4002L5.62 17.3002C4.86 18.0602 3.46 18.0602 2.7 17.3002C2.26 16.8602 2.06 16.4402 2.06 15.7802C2.06 15.1402 2.28 14.7002 2.7 14.2602L6.7 10.2602C7.14 9.82016 7.14 9.18016 6.7 8.74016C6.26 8.30016 5.62 8.30016 5.18 8.74016L1.18 12.7402C0.44 13.5002 0 14.5802 0 15.7802C0 16.9802 0.44 17.9402 1.18 18.8202C1.94 19.5802 3.02 20.0202 4.2 20.0202C5.28 20.0202 6.36 19.5802 7.22 18.8202L11.22 14.8202C11.66 14.3802 11.66 13.7402 11.22 13.3002C10.7 12.9602 9.94 12.9602 9.52 13.4002Z" fill="#767676"/>
<path d="M13.0793 6.90031C12.6393 6.46031 11.9993 6.46031 11.5593 6.90031L7.3593 11.1203C6.9193 11.5603 6.9193 12.2003 7.3593 12.6403C7.5793 12.8603 7.8993 12.9603 8.1193 12.9603C8.3393 12.9603 8.6593 12.8603 8.8793 12.6403L13.0993 8.42031C13.5193 7.98031 13.5193 7.32031 13.0793 6.90031Z" fill="#767676"/>
</g>
<defs>
<clipPath id="clip0_574_17356">
<rect width="20" height="20" fill="white"/>
</clipPath>
</defs>
</svg>
