<svg width="22" height="22" viewBox="0 0 22 22" fill="none" xmlns="http://www.w3.org/2000/svg">
<path d="M10.9991 20.6203C10.8851 20.6203 10.7758 20.575 10.6952 20.4945L1.74245 11.5417C-0.578211 9.22098 -0.578211 5.44493 1.74245 3.12427C2.86638 2.00034 4.36105 1.3812 5.95111 1.38086C7.54134 1.3812 9.03596 2.00034 10.1599 3.12427C10.6234 3.58774 11.3748 3.58774 11.8383 3.12427C12.9625 2.00004 14.4572 1.38095 16.047 1.38095C17.6368 1.38095 19.1315 2.00008 20.2557 3.12427C21.3796 4.24816 21.9987 5.74279 21.9991 7.33285C21.9988 8.92312 21.3796 10.4177 20.2557 11.5417L11.3029 20.4945C11.2223 20.575 11.1131 20.6203 10.9991 20.6203Z" fill="url(#paint0_linear_810_4354)"/>
<defs>
<linearGradient id="paint0_linear_810_4354" x1="0.00195313" y1="11.0006" x2="21.9991" y2="11.0006" gradientUnits="userSpaceOnUse">
<stop stop-color="#964400"/>
<stop offset="0.25" stop-color="#F3D35D"/>
<stop offset="0.5" stop-color="#F3D35D"/>
<stop offset="1" stop-color="#8C4202"/>
</linearGradient>
</defs>
</svg>
