<svg width="20" height="20" viewBox="0 0 20 20" fill="none" xmlns="http://www.w3.org/2000/svg">
<path d="M9.07226 11.7555L9.07227 10.1905C9.07227 9.84478 8.79223 9.56453 8.44679 9.56453H7.1958M9.07226 13.9464L9.07227 18.3283C9.07227 18.674 9.3523 18.9543 9.69776 18.9543H10.3327C10.6781 18.9543 10.9581 18.674 10.9581 18.3283L10.9582 13.9464M5.31933 9.56453H4.06836V7.68658H8.44679C8.79223 7.68658 9.07227 7.40632 9.07227 7.06059V3.93067C9.07227 3.58494 9.3523 3.30469 9.69776 3.30469H10.3327C10.6781 3.30469 10.9581 3.58494 10.9581 3.93067V7.06059C10.9581 7.40632 11.2382 7.68658 11.5836 7.68658H15.9621V9.56453H14.7111" stroke="#C39936" stroke-width="0.625984" stroke-linecap="round" stroke-linejoin="round"/>
<path d="M5.32031 7.6875H7.19826V14.8863H5.32031V7.6875Z" stroke="#C39936" stroke-width="0.625984" stroke-linejoin="round"/>
<path d="M12.832 7.6875H14.71V14.8863H12.832V7.6875Z" stroke="#C39936" stroke-width="0.625984" stroke-linejoin="round"/>
<path d="M12.8331 9.25195C12.8331 10.8077 11.5719 12.0689 10.0161 12.0689C8.4604 12.0689 7.19922 10.8077 7.19922 9.25195" stroke="#C39936" stroke-width="0.625984" stroke-linejoin="round"/>
<path d="M7.19922 13C7.98447 13.591 8.95768 13.9457 10.0161 13.9457C11.0746 13.9457 12.0478 13.591 12.8331 13" stroke="#C39936" stroke-width="0.625984" stroke-linejoin="round"/>
<path d="M10.959 11.7554L10.959 10.1904C10.959 9.84471 11.239 9.56445 11.5845 9.56445H12.8355" stroke="#C39936" stroke-width="0.625984" stroke-linecap="round" stroke-linejoin="round"/>
<path d="M16.5904 2.99023C16.5493 2.99023 16.5085 2.99833 16.4706 3.01406C16.4326 3.02979 16.3981 3.05283 16.369 3.08189C16.34 3.11096 16.3169 3.14547 16.3012 3.18345C16.2854 3.22142 16.2773 3.26212 16.2773 3.30323C16.2773 3.34433 16.2854 3.38503 16.3012 3.42301C16.3169 3.46098 16.34 3.4955 16.369 3.52456C16.3981 3.55362 16.4326 3.57667 16.4706 3.5924C16.5085 3.60812 16.5493 3.61622 16.5904 3.61622C16.6734 3.61622 16.753 3.58324 16.8117 3.52454C16.8704 3.46584 16.9033 3.38624 16.9033 3.30323C16.9033 3.26212 16.8952 3.22142 16.8795 3.18345C16.8638 3.14547 16.8407 3.11098 16.8117 3.08191C16.7826 3.05285 16.7481 3.02979 16.7101 3.01406C16.6722 2.99833 16.6315 2.99023 16.5904 2.99023Z" fill="#C39936"/>
<path d="M15.9634 3.61719C15.9223 3.61718 15.8816 3.62528 15.8436 3.64101C15.8056 3.65674 15.7711 3.67978 15.7421 3.70885C15.713 3.73791 15.6899 3.77242 15.6742 3.8104C15.6585 3.84838 15.6504 3.88907 15.6504 3.93018C15.6504 3.97128 15.6585 4.01198 15.6742 4.04996C15.6899 4.08793 15.713 4.12245 15.7421 4.15151C15.7711 4.18058 15.8056 4.20362 15.8436 4.21935C15.8816 4.23508 15.9223 4.24317 15.9634 4.24317C16.0464 4.24317 16.126 4.21019 16.1847 4.15149C16.2434 4.0928 16.2764 4.01319 16.2764 3.93018C16.2764 3.88908 16.2683 3.84837 16.2526 3.8104C16.2368 3.77243 16.2138 3.73793 16.1847 3.70887C16.1557 3.6798 16.1212 3.65674 16.0832 3.64101C16.0452 3.62528 16.0045 3.61719 15.9634 3.61719Z" fill="#C39936"/>
<path d="M17.2154 3.61719C17.1743 3.61718 17.1335 3.62528 17.0956 3.64101C17.0576 3.65674 17.0231 3.67978 16.994 3.70885C16.965 3.73791 16.9419 3.77242 16.9262 3.8104C16.9104 3.84838 16.9023 3.88907 16.9023 3.93018C16.9023 3.97128 16.9104 4.01198 16.9262 4.04996C16.9419 4.08793 16.965 4.12245 16.994 4.15151C17.0231 4.18058 17.0576 4.20362 17.0956 4.21935C17.1336 4.23508 17.1743 4.24317 17.2154 4.24317C17.2984 4.24317 17.378 4.21019 17.4367 4.15149C17.4954 4.0928 17.5283 4.01319 17.5283 3.93018C17.5283 3.88908 17.5203 3.84837 17.5045 3.8104C17.4888 3.77243 17.4657 3.73793 17.4367 3.70887C17.4076 3.6798 17.3731 3.65674 17.3351 3.64101C17.2972 3.62528 17.2565 3.61719 17.2154 3.61719Z" fill="#C39936"/>
<path d="M16.5904 4.24219C16.5493 4.24218 16.5085 4.25028 16.4706 4.26601C16.4326 4.28174 16.3981 4.30478 16.369 4.33385C16.34 4.36291 16.3169 4.39743 16.3012 4.4354C16.2854 4.47338 16.2773 4.51408 16.2773 4.55518C16.2773 4.59628 16.2854 4.63698 16.3012 4.67496C16.3169 4.71293 16.34 4.74743 16.369 4.77649C16.3981 4.80556 16.4326 4.82862 16.4706 4.84435C16.5085 4.86008 16.5493 4.86817 16.5904 4.86817C16.6734 4.86817 16.753 4.83519 16.8117 4.77649C16.8704 4.7178 16.9033 4.63819 16.9033 4.55518C16.9033 4.47217 16.8704 4.39256 16.8117 4.33387C16.753 4.27517 16.6734 4.24219 16.5904 4.24219Z" fill="#C39936"/>
<path d="M14.7114 1.73828C14.6703 1.73828 14.6296 1.74637 14.5917 1.7621C14.5537 1.77783 14.5192 1.80089 14.4901 1.82996C14.461 1.85902 14.438 1.89352 14.4223 1.93149C14.4065 1.96947 14.3984 2.01019 14.3984 2.05129C14.3984 2.0924 14.4065 2.1331 14.4223 2.17107C14.438 2.20905 14.4611 2.24354 14.4901 2.27261C14.5192 2.30167 14.5537 2.32472 14.5917 2.34044C14.6296 2.35617 14.6703 2.36427 14.7114 2.36427C14.7945 2.36426 14.8741 2.3313 14.9328 2.27261C14.9915 2.21391 15.0244 2.1343 15.0244 2.05129C15.0244 2.01019 15.0163 1.96949 15.0006 1.93151C14.9849 1.89354 14.9618 1.85902 14.9328 1.82996C14.9037 1.80089 14.8692 1.77783 14.8312 1.7621C14.7933 1.74637 14.7526 1.73828 14.7114 1.73828Z" fill="#C39936"/>
<path d="M17.2154 6.12109C17.1743 6.12109 17.1335 6.12919 17.0956 6.14492C17.0576 6.16064 17.0231 6.18371 16.994 6.21277C16.965 6.24184 16.9419 6.27633 16.9262 6.31431C16.9104 6.35228 16.9023 6.39298 16.9023 6.43409C16.9023 6.47519 16.9104 6.51589 16.9262 6.55386C16.9419 6.59184 16.965 6.62635 16.994 6.65542C17.0231 6.68448 17.0576 6.70753 17.0956 6.72326C17.1335 6.73898 17.1743 6.74708 17.2154 6.74708C17.2984 6.74708 17.378 6.7141 17.4367 6.6554C17.4954 6.5967 17.5283 6.5171 17.5283 6.43409C17.5283 6.35108 17.4954 6.27147 17.4367 6.21277C17.378 6.15407 17.2984 6.12109 17.2154 6.12109Z" fill="#C39936"/>
<path d="M5.94775 1.73828C5.98886 1.73828 6.02956 1.74637 6.06754 1.7621C6.10551 1.77783 6.14002 1.80088 6.16909 1.82994C6.19815 1.859 6.22121 1.89352 6.23694 1.93149C6.25267 1.96947 6.26077 2.01017 6.26077 2.05127C6.26076 2.09238 6.25267 2.13308 6.23694 2.17105C6.22121 2.20903 6.19815 2.24354 6.16908 2.27261C6.14002 2.30167 6.10551 2.32472 6.06754 2.34044C6.02956 2.35617 5.98886 2.36427 5.94775 2.36427C5.86474 2.36426 5.78514 2.33128 5.72644 2.27259C5.66774 2.21389 5.63477 2.13428 5.63477 2.05127C5.63476 2.01017 5.64286 1.96947 5.65859 1.93149C5.67432 1.89352 5.69737 1.85902 5.72644 1.82996C5.7555 1.80089 5.79 1.77783 5.82798 1.7621C5.86595 1.74637 5.90665 1.73828 5.94775 1.73828Z" fill="#C39936"/>
<path d="M4.6958 1.73828C4.73691 1.73828 4.77761 1.74637 4.81558 1.7621C4.85356 1.77783 4.88807 1.80088 4.91713 1.82994C4.9462 1.859 4.96926 1.89352 4.98499 1.93149C5.00072 1.96947 5.00881 2.01017 5.00881 2.05127C5.00881 2.09238 5.00072 2.13308 4.98499 2.17105C4.96925 2.20903 4.9462 2.24354 4.91713 2.27261C4.88806 2.30167 4.85356 2.32472 4.81558 2.34044C4.77761 2.35617 4.73691 2.36427 4.6958 2.36427C4.61279 2.36426 4.53318 2.33128 4.47449 2.27259C4.41579 2.21389 4.38281 2.13428 4.38281 2.05127C4.38281 2.01017 4.39091 1.96947 4.40664 1.93149C4.42236 1.89352 4.44542 1.85902 4.47448 1.82996C4.50355 1.80089 4.53805 1.77783 4.57602 1.7621C4.614 1.74637 4.6547 1.73828 4.6958 1.73828Z" fill="#C39936"/>
<path d="M5.94775 2.99023C5.98886 2.99023 6.02956 2.99831 6.06754 3.01404C6.10552 3.02977 6.14002 3.05283 6.16909 3.08189C6.19815 3.11096 6.22121 3.14547 6.23694 3.18345C6.25267 3.22142 6.26077 3.26212 6.26077 3.30323C6.26076 3.34433 6.25267 3.38503 6.23694 3.42301C6.22121 3.46098 6.19815 3.49548 6.16908 3.52454C6.14002 3.5536 6.10551 3.57667 6.06754 3.5924C6.02956 3.60812 5.98886 3.61622 5.94775 3.61622C5.86475 3.61622 5.78514 3.58324 5.72644 3.52454C5.66774 3.46584 5.63477 3.38624 5.63477 3.30323C5.63476 3.26212 5.64286 3.22142 5.65859 3.18345C5.67432 3.14547 5.69737 3.11098 5.72643 3.08191C5.7555 3.05285 5.79 3.02979 5.82798 3.01406C5.86595 2.99833 5.90665 2.99023 5.94775 2.99023Z" fill="#C39936"/>
<path d="M4.6958 2.99023C4.73691 2.99023 4.77761 2.99831 4.81559 3.01404C4.85356 3.02977 4.88807 3.05283 4.91714 3.08189C4.9462 3.11096 4.96926 3.14547 4.98499 3.18345C5.00072 3.22142 5.00881 3.26212 5.00881 3.30323C5.00881 3.34433 5.00072 3.38503 4.98498 3.42301C4.96925 3.46098 4.9462 3.49548 4.91713 3.52454C4.88806 3.5536 4.85356 3.57667 4.81558 3.5924C4.77761 3.60812 4.7369 3.61622 4.6958 3.61622C4.61279 3.61622 4.53318 3.58324 4.47449 3.52454C4.41579 3.46584 4.38281 3.38624 4.38281 3.30323C4.38281 3.26212 4.39091 3.22142 4.40663 3.18345C4.42236 3.14547 4.44542 3.11098 4.47448 3.08191C4.50355 3.05285 4.53805 3.02979 4.57602 3.01406C4.614 2.99833 4.6547 2.99023 4.6958 2.99023Z" fill="#C39936"/>
<path d="M3.44192 4.86821C3.40081 4.86821 3.36011 4.86012 3.32213 4.84439C3.28415 4.82866 3.24964 4.8056 3.22057 4.77653C3.19151 4.74746 3.16845 4.71296 3.15272 4.67498C3.13699 4.637 3.1289 4.59629 3.12891 4.55518C3.12891 4.51408 3.137 4.47338 3.15273 4.4354C3.16847 4.39743 3.19152 4.36293 3.22059 4.33387C3.24965 4.3048 3.28416 4.28174 3.32214 4.26601C3.36011 4.25028 3.40081 4.24218 3.44192 4.24219C3.52493 4.24219 3.60454 4.27517 3.66323 4.33387C3.72193 4.39256 3.75491 4.47217 3.75491 4.55518C3.75491 4.59628 3.74682 4.637 3.73109 4.67498C3.71536 4.71296 3.69231 4.74745 3.66325 4.77651C3.63418 4.80558 3.59968 4.82866 3.5617 4.84439C3.52373 4.86012 3.48302 4.86821 3.44192 4.86821Z" fill="#C39936"/>
<path d="M2.81692 6.12014C2.77581 6.12015 2.73511 6.11205 2.69713 6.09632C2.65915 6.08059 2.62464 6.05753 2.59558 6.02847C2.56651 5.9994 2.54345 5.96489 2.52772 5.92691C2.512 5.88893 2.5039 5.84824 2.50391 5.80713C2.50391 5.76603 2.512 5.72533 2.52773 5.68735C2.54346 5.64938 2.56652 5.61486 2.59559 5.5858C2.62465 5.55674 2.65916 5.53369 2.69714 5.51796C2.73511 5.50223 2.77581 5.49414 2.81692 5.49414C2.89993 5.49414 2.97954 5.5271 3.03823 5.5858C3.09693 5.6445 3.12991 5.72412 3.12991 5.80713C3.12991 5.84824 3.12182 5.88893 3.10609 5.92691C3.09036 5.96489 3.06731 5.9994 3.03825 6.02847C3.00918 6.05753 2.97468 6.08059 2.9367 6.09632C2.89873 6.11205 2.85802 6.12014 2.81692 6.12014Z" fill="#C39936"/>
</svg>
