<svg width="13" height="13" viewBox="0 0 13 13" fill="none" xmlns="http://www.w3.org/2000/svg">
<path d="M5.38717 9.16917L9.86917 4.68717L9.16667 3.98467L5.38717 7.76417L3.48717 5.86417L2.78467 6.56667L5.38717 9.16917ZM6.3345 12.6667C5.4585 12.6667 4.63511 12.5004 3.86433 12.168C3.09356 11.8356 2.42311 11.3844 1.853 10.8145C1.28289 10.2446 0.8315 9.57444 0.498833 8.804C0.166278 8.03356 0 7.21039 0 6.3345C0 5.4585 0.166222 4.63511 0.498667 3.86433C0.831111 3.09356 1.28228 2.42311 1.85217 1.853C2.42206 1.28289 3.09222 0.8315 3.86267 0.498833C4.63311 0.166278 5.45628 0 6.33217 0C7.20817 0 8.03156 0.166222 8.80233 0.498666C9.57311 0.831111 10.2436 1.28228 10.8137 1.85217C11.3838 2.42206 11.8352 3.09222 12.1678 3.86267C12.5004 4.63311 12.6667 5.45628 12.6667 6.33217C12.6667 7.20817 12.5004 8.03156 12.168 8.80233C11.8356 9.57311 11.3844 10.2436 10.8145 10.8137C10.2446 11.3838 9.57444 11.8352 8.804 12.1678C8.03356 12.5004 7.21039 12.6667 6.3345 12.6667Z" fill="#C39936"/>
</svg>
