<svg width="30" height="30" viewBox="0 0 30 30" fill="none" xmlns="http://www.w3.org/2000/svg">
<mask id="mask0_811_2986" style="mask-type:alpha" maskUnits="userSpaceOnUse" x="0" y="0" width="30" height="30">
<rect width="29.3333" height="29.3333" fill="#D9D9D9"/>
</mask>
<g mask="url(#mask0_811_2986)">
<path d="M14.6664 26.8859C13.9942 26.8859 13.4188 26.6465 12.9401 26.1678C12.4614 25.6891 12.222 25.1136 12.222 24.4414H17.1109C17.1109 25.1136 16.8715 25.6891 16.3928 26.1678C15.9141 26.6465 15.3387 26.8859 14.6664 26.8859ZM6.11089 23.2192C5.7646 23.2192 5.47432 23.1021 5.24006 22.8678C5.0058 22.6335 4.88867 22.3433 4.88867 21.997C4.88867 21.6507 5.0058 21.3604 5.24006 21.1261C5.47432 20.8919 5.7646 20.7747 6.11089 20.7747H7.33312V12.2192C7.33312 10.5284 7.84238 9.02613 8.86089 7.71224C9.87941 6.39835 11.2035 5.5377 12.8331 5.1303V4.27474C12.8331 3.76548 13.0114 3.33261 13.3678 2.97613C13.7243 2.61965 14.1572 2.44141 14.6664 2.44141C15.1757 2.44141 15.6086 2.61965 15.9651 2.97613C16.3215 3.33261 16.4998 3.76548 16.4998 4.27474V4.67196C16.2961 5.07937 16.1433 5.50715 16.0414 5.9553C15.9396 6.40344 15.8887 6.86178 15.8887 7.3303C15.8887 9.02104 16.4845 10.4622 17.6762 11.6539C18.8678 12.8456 20.309 13.4414 21.9998 13.4414V20.7747H23.222C23.5683 20.7747 23.8586 20.8919 24.0928 21.1261C24.3271 21.3604 24.4442 21.6507 24.4442 21.997C24.4442 22.3433 24.3271 22.6335 24.0928 22.8678C23.8586 23.1021 23.5683 23.2192 23.222 23.2192H6.11089ZM21.9998 10.997C20.9813 10.997 20.1155 10.6405 19.4026 9.92752C18.6896 9.21455 18.3331 8.34881 18.3331 7.3303C18.3331 6.31178 18.6896 5.44604 19.4026 4.73307C20.1155 4.02011 20.9813 3.66363 21.9998 3.66363C23.0183 3.66363 23.884 4.02011 24.597 4.73307C25.31 5.44604 25.6664 6.31178 25.6664 7.3303C25.6664 8.34881 25.31 9.21455 24.597 9.92752C23.884 10.6405 23.0183 10.997 21.9998 10.997Z" fill="#C39936"/>
</g>
</svg>
